<svg width="155" height="62" viewBox="0 0 155 62" fill="none" xmlns="http://www.w3.org/2000/svg">
<path d="M79.7483 43.5733L79.3938 43.9315H74.7897L74.4352 43.5733L66.6406 22.8151V19.2332L66.9951 18.875H70.1842L70.5387 19.2332L76.9153 36.7723H77.2698L83.6464 19.2332L84.0009 18.875H87.1884L87.5429 19.2332V22.8151L79.7483 43.5733Z" fill="#120036"/>
<path d="M96.0509 43.9303H91.7998L91.4453 43.5721V19.2273L91.7998 18.8691H96.0509L96.4054 19.2273V43.5721L96.0509 43.9303Z" fill="#120036"/>
<path d="M110.922 44.2865C103.836 44.2865 100.648 40.7061 100.648 36.0543L101.003 35.6961H105.254L105.607 36.0543C105.607 38.5601 107.025 39.9913 111.276 39.9913C114.465 39.9913 116.236 38.9183 116.236 36.7691C116.236 34.2633 114.82 33.5469 109.86 32.8321C104.899 32.1173 101.003 30.3263 101.003 25.3147C101.003 21.7359 103.837 18.5137 110.569 18.5137C117.3 18.5137 120.134 21.7343 120.134 26.0295L119.78 26.3877H115.529L115.174 26.0295C115.174 23.8819 114.111 22.8089 110.214 22.8089C107.027 22.8089 105.963 23.8835 105.963 25.3147C105.963 27.4623 107.38 28.1787 112.34 28.8935C117.3 29.6084 121.196 31.7575 121.196 36.7691C121.196 40.7077 118.362 44.2865 110.922 44.2865V44.2865Z" fill="#120036"/>
<path d="M130.059 43.9303H125.808L125.453 43.5721V19.2273L125.808 18.8691H130.059L130.413 19.2273V43.5721L130.059 43.9303Z" fill="#120036"/>
<path d="M154.146 23.1702H147.061L146.708 23.5284V43.5733L146.353 43.9315H142.102L141.748 43.5733V23.5284L141.393 23.1702H134.308L133.953 22.812V19.2332L134.308 18.875H154.146L154.501 19.2332V22.8151L154.146 23.1702Z" fill="#120036"/>
<path d="M44.4283 28.7206C45.2004 28.7965 45.9657 28.5195 46.5143 27.9654C47.063 27.4113 47.3376 26.6383 47.2629 25.8581C47.2629 24.0687 46.5554 22.9941 44.4283 22.9941H38.7608L38.4062 23.3523V28.3639L38.7608 28.7221L44.4283 28.7206Z" fill="#120036"/>
<path d="M18.9186 22.9941H15.7295L15.375 23.3523V39.0958L15.7295 39.454H18.9186C23.8786 39.454 25.6496 36.9482 25.6496 31.2217C25.6496 25.4953 23.8848 22.9941 18.9186 22.9941V22.9941Z" fill="#120036"/>
<path fill-rule="evenodd" clip-rule="evenodd" d="M31.1812 0C14.2364 0 0.5 13.8792 0.5 31C0.5 48.1208 14.2364 62 31.1812 62C48.126 62 61.8624 48.1208 61.8624 31C61.8624 13.8792 48.126 0 31.1812 0ZM18.5693 43.7539H10.7762L10.4217 43.3957V19.0509L10.7762 18.6927H18.5693C27.4259 18.6927 30.6134 23.3446 30.6134 31.2202C30.6134 39.0958 27.4259 43.7539 18.5693 43.7539ZM33.8009 43.7539H45.845H45.8527C49.3825 43.7539 52.9291 41.9629 52.9291 36.9466C52.9291 33.7244 51.5126 31.5784 48.678 30.862V30.5038C50.9747 29.7968 52.4575 27.5495 52.2201 25.1356C52.2201 20.4821 48.678 18.6927 45.136 18.6927H33.8009L33.4464 19.0509V43.3957L33.8009 43.7539Z" fill="#120036"/>
<path d="M44.4283 33.0156H38.7608L38.4062 33.3738V39.1003L38.7608 39.4585H44.4283C46.9083 39.4585 47.9703 38.3854 47.9703 36.2378C47.9703 34.0902 46.9083 33.0156 44.4283 33.0156Z" fill="#120036"/>
</svg>
